<svg xmlns="http://www.w3.org/2000/svg" width="367" height="28.75" viewBox="0 0 367 28.75">
  <g id="Grupo_52" data-name="Grupo 52" transform="translate(-1452 -953.25)">
    <path id="União_1" data-name="União 1" d="M-1363-587v-28.75h17.249V-610h5.75v17.25h-5.75V-610h-11.5v17.25h11.5V-587Zm-46,0v-5.75h5.75V-587Zm-103,0v-5.75h17.25V-587Zm-34.5,0v-28.75h5.75V-587Zm-11.5,0v-28.75h5.75V-587Zm-62.75,0v-5.75h-11.5V-587H-1638v-23h5.75v11.5h11.5V-610h5.75v23Zm-74.75,0v-5.75h5.75V-587Zm292.25-5.75v-5.75h5.75v5.75Zm-28.75,0v-5.75h17.25v5.75Zm-62.75,0v-5.75h5.75v5.75Zm-189.25,0v-5.75h17.25v5.75Zm-17.25,0v-5.75h5.75v5.75Zm303.75-5.75v-5.75h5.75v5.75Zm-108.75,0v-5.75h11.5v5.75Zm-200.75,0v-5.75h5.75v5.75Zm303.75-5.75V-610h5.75v5.75Zm-28.75,0V-610h17.25v5.75Zm-80,0V-610h5.75v5.75Zm-172,0V-610h17.25v5.75Zm-17.25,0V-610h5.75v5.75ZM-1409-610v-5.75h5.75V-610Zm-97.249,0v-5.75H-1489V-610Zm-126,0v-5.75h11.5V-610Zm-63.25,0v-5.75h5.75V-610Z" transform="translate(3159 1569)" fill="#fff"/>
  </g>
</svg>
