<svg xmlns="http://www.w3.org/2000/svg" width="441" height="116" viewBox="0 0 441 116">
  <g id="Grupo_39" data-name="Grupo 39" transform="translate(-774 -757)">
    <g id="Subtração_12" data-name="Subtração 12" transform="translate(764 756)" fill="#f7bb00">
      <path d="M 39.00020217895508 112.0000152587891 L 39.00020217895508 94.99948883056641 L 39.00020217895508 89.99948883056641 L 34.00020217895508 89.99948883056641 L 14.99990844726562 89.99948883056641 L 14.99990844726562 28.00042915344238 L 34.00020217895508 28.00042915344238 L 39.00020217895508 28.00042915344238 L 39.00020217895508 23.00042915344238 L 39.00020217895508 5.999899387359619 L 423.9994506835938 5.999899387359619 L 423.9994506835938 23.00042915344238 L 423.9994506835938 28.00042915344238 L 428.9994506835938 28.00042915344238 L 445.9999084472656 28.00042915344238 L 445.9999084472656 90.00042724609375 L 427.0005493164062 90.00042724609375 L 422.0005493164062 90.00042724609375 L 422.0005493164062 95.00042724609375 L 422.0005493164062 111.9998397827148 L 39.00020217895508 112.0000152587891 Z" stroke="none"/>
      <path d="M 417.0005187988281 107.0000228881836 L 417.0005187988281 95.00042724609375 L 417.0005187988281 85.00042724609375 L 427.0005187988281 85.00042724609375 L 440.9999084472656 85.00042724609375 L 440.9999084472656 33.00042343139648 L 428.9994506835938 33.00042343139648 L 418.9994506835938 33.00042343139648 L 418.9994506835938 23.00042533874512 L 418.9994506835938 10.99989128112793 L 44.00017547607422 10.99989128112793 L 44.00017547607422 23.00042533874512 L 44.00017547607422 33.00042343139648 L 34.00017547607422 33.00042343139648 L 19.99990844726562 33.00042343139648 L 19.99990844726562 84.99948883056641 L 34.00017547607422 84.99948883056641 L 44.00017547607422 84.99948883056641 L 44.00017547607422 94.99948883056641 L 44.00017547607422 107.0000228881836 L 417.0005187988281 107.0000228881836 M 427.0005187988281 117.0000228881836 L 426.9985046386719 117.0000228881836 L 426.9985046386719 116.9998245239258 L 34.00017547607422 117.0000228881836 L 34.00017547607422 94.99948883056641 L 9.999908447265625 94.99948883056641 L 9.999908447265625 23.00042533874512 L 34.00017547607422 23.00042533874512 L 34.00017547607422 0.9998914003372192 L 428.9994506835938 0.9998914003372192 L 428.9994506835938 23.00042533874512 L 450.9999084472656 23.00042533874512 L 450.9999084472656 95.00042724609375 L 427.0005187988281 95.00042724609375 L 427.0005187988281 117.0000228881836 Z" stroke="none" fill="#3e550d"/>
    </g>
    <path id="Caminho_53" data-name="Caminho 53" d="M0-18.75H6.25V-25H0Zm6.25-12.5V-25H25v-6.25ZM18.75-12.5v-6.25H6.25v6.25ZM25-6.25V-12.5H18.75v6.25Zm-25,0V0H18.75V-6.25ZM37.5,0h6.25V-25H50v-6.25H31.25V-25H37.5ZM75-25v-6.25H62.5V-25Zm0,12.5H62.5V-25H56.25V0H62.5V-6.25H75V0h6.25V-25H75ZM106.25-25v12.5h6.25V-25ZM93.75-12.5V-25h12.5v-6.25H87.5V0h6.25V-6.25h12.5V-12.5ZM112.5,0V-6.25h-6.25V0ZM125,0h6.25V-25h6.25v-6.25H118.75V-25H125Z" transform="translate(923 828)" fill="#e7f7ff"/>
  </g>
</svg>
