<svg xmlns="http://www.w3.org/2000/svg" width="441.001" height="116.001" viewBox="0 0 441.001 116.001">
  <g id="Subtração_8" data-name="Subtração 8" transform="translate(0 -10)" fill="none">
    <path d="M441,126H24V104H0V10H419V32h22v94h0Z" stroke="none"/>
    <path d="M 431.0000305175781 116.0009536743164 L 431.0000305175781 42.0003776550293 L 418.99951171875 42.0003776550293 L 408.99951171875 42.0003776550293 L 408.99951171875 32.0003776550293 L 408.99951171875 19.99990844726562 L 10.00003719329834 19.99990844726562 L 10.00003719329834 93.99951171875 L 24.00037002563477 93.99951171875 L 34.00037002563477 93.99951171875 L 34.00037002563477 103.99951171875 L 34.00037002563477 116 L 431.0000305175781 116.0009536743164 M 441.0010375976562 126.0009765625 L 441.0000305175781 126.0009765625 L 441.0010375976562 126.0009765625 Z M 441.0010375976562 126.0009765625 L 24.00037002563477 125.9999771118164 L 24.00037002563477 103.99951171875 L 3.68733708455693e-05 103.99951171875 L 3.68733708455693e-05 9.999909400939941 L 418.99951171875 9.999909400939941 L 418.99951171875 32.0003776550293 L 441.0000305175781 32.0003776550293 L 441.0000305175781 125.9999771118164 L 441.0000305175781 126.0009765625 Z" stroke="none" fill="#f5ba2a"/>
  </g>
</svg>
