<svg xmlns="http://www.w3.org/2000/svg" xmlns:xlink="http://www.w3.org/1999/xlink" width="603" height="809" viewBox="0 0 603 809">
  <defs>
    <linearGradient id="linear-gradient" x1="0.5" x2="0.5" y2="1" gradientUnits="objectBoundingBox">
      <stop offset="0" stop-color="#f56117"/>
      <stop offset="1" stop-color="#f3b93d"/>
    </linearGradient>
  </defs>
  <g id="Grupo_38" data-name="Grupo 38" transform="translate(-684 -163)">
    <g id="Subtração_6" data-name="Subtração 6" transform="translate(684 204)" fill="#6f9725">
      <path d="M 563.4996948242188 760.5 L 39.50133514404297 760.5 L 39.50133514404297 734.6082153320312 L 39.50133514404297 727.1082153320312 L 32.00133514404297 727.1082153320312 L 7.500869750976562 727.1082153320312 L 7.500019073486328 392.5433349609375 L 32.00133514404297 392.5433349609375 L 39.50133514404297 392.5433349609375 L 39.50133514404297 385.0433349609375 L 39.50133514404297 351.6515502929688 L 39.50133514404297 344.1515502929688 L 32.00133514404297 344.1515502929688 L 7.500888824462891 344.1515502929688 L 7.500888824462891 40.89077758789062 L 32.00133514404297 40.89077758789062 L 39.50133514404297 40.89077758789062 L 39.50133514404297 33.39077758789062 L 39.50133514404297 7.5 L 563.4996948242188 7.5 L 563.4996948242188 33.39077758789062 L 563.4996948242188 40.89077758789062 L 570.9996948242188 40.89077758789062 L 595.5 40.89077758789062 L 595.5 344.1515502929688 L 570.9996948242188 344.1515502929688 L 563.4996948242188 344.1515502929688 L 563.4996948242188 351.6515502929688 L 563.4996948242188 385.0424499511719 L 563.4996948242188 392.5424499511719 L 570.9996948242188 392.5424499511719 L 595.5 392.5424499511719 L 595.5 727.1082153320312 L 570.9996948242188 727.1082153320312 L 563.4996948242188 727.1082153320312 L 563.4996948242188 734.6082153320312 L 563.4996948242188 760.5 Z" stroke="none"/>
      <path d="M 555.9996948242188 753 L 555.9996948242188 734.6082153320312 L 555.9996948242188 719.6082153320312 L 570.9996948242188 719.6082153320312 L 588 719.6082153320312 L 588 400.0424499511719 L 570.9996948242188 400.0424499511719 L 555.9996948242188 400.0424499511719 L 555.9996948242188 385.0424499511719 L 555.9996948242188 351.6515502929688 L 555.9996948242188 336.6515502929688 L 570.9996948242188 336.6515502929688 L 588 336.6515502929688 L 588 48.39077758789062 L 570.9996948242188 48.39077758789062 L 555.9996948242188 48.39077758789062 L 555.9996948242188 33.39077758789062 L 555.9996948242188 15 L 47.00133514404297 15 L 47.00133514404297 33.39077758789062 L 47.00133514404297 48.39077758789062 L 32.00133514404297 48.39077758789062 L 15.00088882446289 48.39077758789062 L 15.00088882446289 336.6515502929688 L 32.00133514404297 336.6515502929688 L 47.00133514404297 336.6515502929688 L 47.00133514404297 351.6515502929688 L 47.00133514404297 385.0433349609375 L 47.00133514404297 400.0433349609375 L 32.00133514404297 400.0433349609375 L 15.00003814697266 400.0433349609375 L 15.00085067749023 719.6082153320312 L 32.00133514404297 719.6082153320312 L 47.00133514404297 719.6082153320312 L 47.00133514404297 734.6082153320312 L 47.00133514404297 753 L 555.9996948242188 753 M 570.9996948242188 768 L 32.00133514404297 768 L 32.00133514404297 734.6082153320312 L 0.0008888888987712562 734.6082153320312 L 0 385.0433349609375 L 32.00133514404297 385.0433349609375 L 32.00133514404297 351.6515502929688 L 0.0008888888987712562 351.6515502929688 L 0.0008888888987712562 33.39077758789062 L 32.00133514404297 33.39077758789062 L 32.00133514404297 0 L 570.9996948242188 0 L 570.9996948242188 33.39077758789062 L 603 33.39077758789062 L 603 351.6515502929688 L 570.9996948242188 351.6515502929688 L 570.9996948242188 385.0424499511719 L 603 385.0424499511719 L 603 734.6082153320312 L 570.9996948242188 734.6082153320312 L 570.9996948242188 767.9990234375 L 570.9996948242188 768 Z" stroke="none" fill="#f3b93d"/>
    </g>
    <g id="Grupo_37" data-name="Grupo 37" transform="translate(813 173)">
      <path id="Caminho_11" data-name="Caminho 11" d="M45-15H60V-75H45ZM15-75H0v60H15Zm0,60V0H45V-15ZM120-30h15V-60H120ZM90-30V-60h30V-75H75V0H90V-15h30V-30ZM195-60V-75H165v15Zm-30,0H150v45h15ZM195,0V-15H165V0Zm60-60V-75H225v15Zm0,30H225V-60H210V0h15V-15h30V0h15V-60H255Zm75-30v30h15V-60ZM300-30V-60h30V-75H285V0h15V-15h30V-30ZM345,0V-15H330V0Z" transform="translate(0 75)" fill="#2a2141" stroke="#2a2240" stroke-width="20"/>
      <path id="Caminho_10" data-name="Caminho 10" d="M45-15H60V-75H45ZM15-75H0v60H15Zm0,60V0H45V-15ZM120-30h15V-60H120ZM90-30V-60h30V-75H75V0H90V-15h30V-30ZM195-60V-75H165v15Zm-30,0H150v45h15ZM195,0V-15H165V0Zm60-60V-75H225v15Zm0,30H225V-60H210V0h15V-15h30V0h15V-60H255Zm75-30v30h15V-60ZM300-30V-60h30V-75H285V0h15V-15h30V-30ZM345,0V-15H330V0Z" transform="translate(0 75)" fill="url(#linear-gradient)"/>
    </g>
  </g>
</svg>
